<?xml version="1.0" encoding="UTF-8" standalone="no"?>
<!-- Created with Inkscape (http://www.inkscape.org/) -->

<svg
   xmlns:dc="http://purl.org/dc/elements/1.1/"
   xmlns:cc="http://creativecommons.org/ns#"
   xmlns:rdf="http://www.w3.org/1999/02/22-rdf-syntax-ns#"
   xmlns:svg="http://www.w3.org/2000/svg"
   xmlns="http://www.w3.org/2000/svg"
   xmlns:sodipodi="http://sodipodi.sourceforge.net/DTD/sodipodi-0.dtd"
   xmlns:inkscape="http://www.inkscape.org/namespaces/inkscape"
   width="184.25012"
   height="50.049126"
   id="svg2"
   version="1.1"
   inkscape:version="0.48.4 r9939"
   sodipodi:docname="New document 1">
  <defs
     id="defs4">
    <clipPath
       id="clipPath3111"
       clipPathUnits="userSpaceOnUse">
      <path
         id="path3113"
         d="m 0,73.7 181.42,0 0,-73.7 L 0,0 0,73.7 z"
         inkscape:connector-curvature="0" />
    </clipPath>
    <clipPath
       id="clipPath3075"
       clipPathUnits="userSpaceOnUse">
      <path
         id="path3077"
         d="m 0,73.7 181.42,0 0,-73.7 L 0,0 0,73.7 z"
         inkscape:connector-curvature="0" />
    </clipPath>
    <clipPath
       id="clipPath2999"
       clipPathUnits="userSpaceOnUse">
      <path
         id="path3001"
         d="m 0,73.7 181.42,0 0,-73.7 L 0,0 0,73.7 z"
         inkscape:connector-curvature="0" />
    </clipPath>
  </defs>
  <sodipodi:namedview
     id="base"
     pagecolor="#ffffff"
     bordercolor="#666666"
     borderopacity="1.0"
     inkscape:pageopacity="0.0"
     inkscape:pageshadow="2"
     inkscape:zoom="3.959798"
     inkscape:cx="101.19048"
     inkscape:cy="-21.030271"
     inkscape:document-units="px"
     inkscape:current-layer="layer1"
     showgrid="false"
     fit-margin-top="0"
     fit-margin-left="0"
     fit-margin-right="0"
     fit-margin-bottom="0"
     inkscape:window-width="1280"
     inkscape:window-height="972"
     inkscape:window-x="-8"
     inkscape:window-y="-8"
     inkscape:window-maximized="1" />
  <metadata
     id="metadata7">
    <rdf:RDF>
      <cc:Work
         rdf:about="">
        <dc:format>image/svg+xml</dc:format>
        <dc:type
           rdf:resource="http://purl.org/dc/dcmitype/StillImage" />
        <dc:title></dc:title>
      </cc:Work>
    </rdf:RDF>
  </metadata>
  <g
     inkscape:label="Layer 1"
     inkscape:groupmode="layer"
     id="layer1"
     transform="translate(-282.881,-507.54968)">
    <g
       transform="matrix(1.25,0,0,-1.25,261.60437,578.43468)"
       inkscape:label="Irish Life Logo WHITE"
       id="g2993"
       style="fill:#ffffff">
      <g
         id="g2995"
         style="fill:#ffffff">
        <g
           clip-path="url(#clipPath2999)"
           id="g2997"
           style="fill:#ffffff">
          <g
             transform="translate(19.0513,49.8281)"
             id="g3003"
             style="fill:#ffffff">
            <path
               id="path3005"
               style="fill:#ffffff;fill-opacity:1;fill-rule:nonzero;stroke:none"
               d="m 0,0 c 0.139,0.235 0.233,0.828 0.154,1.099 -0.078,0.268 -0.533,0.454 -0.603,0.464 -0.009,0 -0.068,0.015 -0.096,0.014 C -0.734,1.566 -1.237,1.531 -1.536,1.426 -1.562,1.417 -1.612,1.391 -1.632,1.383 -1.732,1.35 -1.873,1.271 -2.03,1.172 l 0,-2.434 c 0.378,0.157 0.819,0.326 1.01,0.405 C -0.715,-0.736 -0.14,-0.234 0,0"
               inkscape:connector-curvature="0" />
          </g>
          <g
             transform="translate(18.7578,44.9727)"
             id="g3007"
             style="fill:#ffffff">
            <path
               id="path3009"
               style="fill:#ffffff;fill-opacity:1;fill-rule:nonzero;stroke:none"
               d="m 0,0 c 0.031,0.02 0.115,0.068 0.115,0.068 l 0.753,0.55 0.094,0.108 0.036,0.075 c 0,0 0.219,0.42 0.219,0.941 0,0.524 -0.663,0.717 -0.663,0.717 0,0 -0.083,0.02 -0.135,0.01 C 0.251,2.436 -0.121,2.3 -0.243,2.273 -0.375,2.245 -0.982,2.048 -1.213,1.882 -1.25,1.855 -1.381,1.77 -1.381,1.77 l -0.355,-0.228 0,-2.025 c 0.418,0.085 0.908,0.184 1.019,0.212 C -0.538,-0.225 -0.151,-0.091 0,0"
               inkscape:connector-curvature="0" />
          </g>
          <g
             transform="translate(26.7231,29.5547)"
             id="g3011"
             style="fill:#ffffff">
            <path
               id="path3013"
               style="fill:#ffffff;fill-opacity:1;fill-rule:nonzero;stroke:none"
               d="m 0,0 -0.282,1.898 c 0,0 -0.188,0.692 -0.322,0.766 -0.09,0.045 -0.224,0.066 -0.302,0.078 -0.038,0.002 -0.063,0.004 -0.063,0.004 L -1.042,2.736 -1.287,2.639 -1.55,2.473 -1.612,2.416 c 0,0 -0.025,-0.029 -0.034,-0.074 C -1.703,2.059 -1.9,1.006 -1.9,0.871 c 0,-0.156 -0.404,-2.609 -0.404,-2.609 l -0.132,-2.787 1.53,-0.094 1.199,-0.078 -0.14,2.4 L 0,0 z"
               inkscape:connector-curvature="0" />
          </g>
          <g
             transform="translate(32.6118,21.3486)"
             id="g3015"
             style="fill:#ffffff">
            <path
               id="path3017"
               style="fill:#ffffff;fill-opacity:1;fill-rule:nonzero;stroke:none"
               d="m 0,0 -1.648,0.479 c 0,0 -0.731,-0.559 -1.185,-0.698 -0.453,-0.138 -3.151,-1.162 -3.291,-1.123 -0.015,0.004 -0.071,-0.013 -0.138,-0.017 C -6.383,-1.367 -6.571,-1.385 -6.795,-1.406 -7.487,-1.477 -8.51,-1.598 -8.9,-1.645 -8.99,-1.654 -9.17,-1.648 -9.17,-1.648 l -0.238,0.023 -2.024,0.502 c 0,0 -0.065,0.01 -0.132,0.043 -0.484,0.232 -2.471,1.213 -2.665,1.363 -0.221,0.172 0.075,0.596 0.075,0.596 0,0 -0.175,0.338 -0.209,0.476 -0.035,0.137 0.443,0.25 0.733,0.499 0.292,0.253 2.13,1.155 2.426,1.198 0.296,0.045 0.948,0.373 0.948,0.373 l 10e-4,1.369 0.031,0.818 c 0,0 0.118,1.682 0.125,2.037 0.01,0.358 0.637,3.553 0.637,3.553 0,0 0.164,2.843 0.217,3.559 0.051,0.713 -1.001,3.549 -1.001,3.549 l -0.44,1.605 -0.024,0.15 -0.041,2.276 c 0,0 -0.706,-0.326 -1.03,-0.596 -0.324,-0.267 -1.463,-0.486 -1.463,-0.486 l -2.346,-0.496 0,-25.088 16.976,0 0,3.637 C 0.825,-0.375 0.162,-0.066 0.162,-0.066 L 0,0 z"
               inkscape:connector-curvature="0" />
          </g>
          <g
             transform="translate(17.0215,56.708)"
             id="g3019"
             style="fill:#ffffff">
            <path
               id="path3021"
               style="fill:#ffffff;fill-opacity:1;fill-rule:nonzero;stroke:none"
               d="m 0,0 0,-3.298 c 0.386,0.146 0.797,0.293 0.853,0.309 0.096,0.027 1.9,0.576 2.031,0.629 0.131,0.052 1.657,0.314 2.03,0.367 0.376,0.053 2.114,0.209 2.629,-0.11 C 8.06,-2.419 8.737,-3.168 8.579,-3.829 8.423,-4.491 8.215,-4.96 8.215,-4.96 c 0,0 -0.389,-0.887 -0.434,-0.978 C 7.734,-6.03 7.509,-6.426 7.509,-6.426 l 0.143,-0.182 c 0,0 0.051,0.041 0.2,0.104 0.151,0.063 0.727,0.411 0.937,0.55 0.002,0.002 0.004,0.002 0.006,0.004 0.216,0.138 0.781,0.263 1.057,0.379 0.279,0.118 0.907,0.131 1.055,0.024 0.147,-0.106 0.78,-0.45 0.85,-0.573 0.069,-0.121 0.483,-0.192 0.483,-0.192 l 1.069,-0.134 c 0,0 0.169,-0.054 0.15,-0.094 -0.017,-0.042 -0.332,-0.156 -0.49,-0.221 -0.16,-0.064 -0.583,-0.22 -0.829,-0.29 C 11.895,-7.12 11.469,-7.363 10.913,-7.781 10.356,-8.199 8.997,-8.948 8.892,-9.262 8.878,-9.306 8.843,-9.369 8.795,-9.443 8.505,-9.894 7.707,-10.798 7.587,-10.931 l -0.406,-0.552 c -0.349,-0.545 -0.614,-1.895 -0.646,-2.016 l -0.007,-1.006 0.014,-0.103 0.19,-1.192 0.02,-0.078 0.025,-0.071 0.448,-0.888 c 0.016,-0.012 0.03,-0.033 0.044,-0.041 0.415,-0.243 0.386,0.221 0.386,0.221 0,0 -0.142,0.46 -0.218,0.703 -0.061,0.201 -0.169,1.457 -0.169,1.457 -0.005,0.225 0.075,0.496 0.139,0.588 0.099,0.142 0.226,0.32 0.531,0.396 0,0 0.445,0.114 0.857,0.071 0.295,-0.03 0.574,-0.139 0.663,-0.422 0.09,-0.289 0.144,-0.811 0.157,-0.95 0.002,-0.023 -0.005,-0.066 -0.005,-0.066 0,0 -0.118,-1.01 -0.135,-1.201 -0.017,-0.19 0.056,-0.625 0.056,-0.625 0,0 0.322,-0.115 0.384,0.108 0.023,0.084 0.135,0.744 0.135,0.744 l 0.264,2.158 0.144,1.863 c 0,0 0.205,1.346 0.292,1.502 0.087,0.156 0.46,0.33 0.784,0.439 0.493,0.168 0.943,-0.114 1.069,-0.212 0.024,-0.019 0.032,-0.075 0.032,-0.075 l -0.122,-0.56 -0.544,-1.436 c 0,0 -0.113,-1.121 -0.117,-1.207 -0.005,-0.086 0.04,-2.088 0.04,-2.088 0,0 -0.045,-1.236 -0.015,-1.326 l -0.5,-3.285 -0.231,-2.481 0.285,-1.921 c 0,0 0.509,-3.573 0.492,-3.698 -0.018,-0.123 0.139,-3.601 0.139,-3.601 l 0.063,-0.526 0.738,-0.2 1.374,-0.385 c 0,0 1.783,1.117 1.984,1.238 0.093,0.052 0.427,0.224 0.756,0.416 L 16.977,0 0,0 z"
               inkscape:connector-curvature="0" />
          </g>
          <g
             transform="translate(89.001,34.1777)"
             id="g3023"
             style="fill:#ffffff">
            <path
               id="path3025"
               style="fill:#ffffff;fill-opacity:1;fill-rule:nonzero;stroke:none"
               d="m 0,0 c -0.673,0.189 -2.427,0.684 -4.263,0.684 -4.499,0 -6.281,-2.592 -6.256,-4.84 0.068,-6.008 7.659,-4.328 7.704,-8.251 0.015,-1.209 -0.873,-2.623 -3.498,-2.623 -1.671,0 -3.149,0.424 -3.671,0.627 l -0.427,-2.336 c 1.06,-0.463 3.664,-0.733 4.695,-0.733 4.617,0 6.737,2.791 6.705,5.692 -0.068,5.997 -7.746,4.932 -7.781,8.05 -0.014,1.171 0.938,1.953 2.941,1.953 1.766,0 2.917,-0.389 3.356,-0.489 L 0,0"
               inkscape:connector-curvature="0" />
          </g>
          <g
             transform="translate(68.9141,31.2148)"
             id="g3027"
             style="fill:#ffffff">
            <path
               id="path3029"
               style="fill:#ffffff;fill-opacity:1;fill-rule:nonzero;stroke:none"
               d="m 0,0 -0.606,0 c -2.242,0 -3.737,-1.279 -4.939,-3.809 l 0,-10.385 -3.663,0 0,17.157 C -8.231,3 -6.871,3.264 -5.545,3.508 l 0,-4.063 c 1.027,1.959 2.539,4.286 5.224,4.286 0.246,0 0.53,-0.036 0.843,-0.071 L 0,0"
               inkscape:connector-curvature="0" />
          </g>
          <g
             transform="translate(103.834,17.0205)"
             id="g3031"
             style="fill:#ffffff">
            <path
               id="path3033"
               style="fill:#ffffff;fill-opacity:1;fill-rule:nonzero;stroke:none"
               d="m 0,0 0,11.614 c 0,2.615 -0.941,3.383 -2.545,3.383 -1.6,0 -3.14,-1.191 -4.568,-3.111 l 0,-11.886 -3.663,0 0,23.261 c 1.01,0.069 2.467,0.231 3.663,0.543 l 0,-9.053 c 1.743,2.195 3.717,3.103 5.789,3.103 2.092,0 3.732,-1.009 4.463,-2.685 0.42,-0.904 0.527,-1.777 0.527,-3.627 L 3.666,0 0,0"
               inkscape:connector-curvature="0" />
          </g>
          <g
             transform="translate(51.0254,17.0205)"
             id="g3035"
             style="fill:#ffffff">
            <path
               id="path3037"
               style="fill:#ffffff;fill-opacity:1;fill-rule:nonzero;stroke:none"
               d="m 0,0 0,23.261 c 1.186,0.105 2.791,0.365 3.979,0.789 L 3.979,0 0,0"
               inkscape:connector-curvature="0" />
          </g>
          <g
             transform="translate(73.1074,37.5605)"
             id="g3039"
             style="fill:#ffffff">
            <path
               id="path3041"
               style="fill:#ffffff;fill-opacity:1;fill-rule:nonzero;stroke:none"
               d="m 0,0 c -1.218,0 -2.196,0.979 -2.196,2.163 0,1.222 0.978,2.198 2.196,2.198 1.188,0 2.165,-0.976 2.165,-2.198 C 2.165,0.979 1.188,0 0,0"
               inkscape:connector-curvature="0" />
          </g>
          <g
             transform="translate(71.2612,17.0205)"
             id="g3043"
             style="fill:#ffffff">
            <path
               id="path3045"
               style="fill:#ffffff;fill-opacity:1;fill-rule:nonzero;stroke:none"
               d="m 0,0 0,17.157 0.348,0.037 c 1.08,0.065 2.338,0.244 3.314,0.508 L 3.662,0 0,0"
               inkscape:connector-curvature="0" />
          </g>
          <g
             transform="translate(117.1582,17.0205)"
             id="g3047"
             style="fill:#ffffff">
            <path
               id="path3049"
               style="fill:#ffffff;fill-opacity:1;fill-rule:nonzero;stroke:none"
               d="m 0,0 0,23.261 c 1.189,0.105 2.723,0.408 3.979,0.789 l 0,-21.364 7.209,0 L 11.188,0 0,0"
               inkscape:connector-curvature="0" />
          </g>
          <g
             transform="translate(149.2969,40.3398)"
             id="g3051"
             style="fill:#ffffff">
            <path
               id="path3053"
               style="fill:#ffffff;fill-opacity:1;fill-rule:nonzero;stroke:none"
               d="m 0,0 c -0.627,0.105 -1.232,0.186 -1.723,0.186 -2.267,0 -2.994,-1.258 -2.994,-5.022 l 0,-1.15 3.975,0 -0.348,-2.164 -3.627,0 0,-15.169 -3.699,0 0,15.169 -2.898,0 0.349,2.164 2.549,0 0,1.429 c 0,4.743 1.848,6.905 5.893,6.905 1.048,0 1.859,-0.08 2.978,-0.289 L 0,0"
               inkscape:connector-curvature="0" />
          </g>
          <g
             transform="translate(132.8887,37.5605)"
             id="g3055"
             style="fill:#ffffff">
            <path
               id="path3057"
               style="fill:#ffffff;fill-opacity:1;fill-rule:nonzero;stroke:none"
               d="m 0,0 c -1.217,0 -2.195,0.979 -2.195,2.163 0,1.222 0.978,2.198 2.195,2.198 1.188,0 2.162,-0.976 2.162,-2.198 C 2.162,0.979 1.188,0 0,0"
               inkscape:connector-curvature="0" />
          </g>
          <g
             transform="translate(131.043,17.0205)"
             id="g3059"
             style="fill:#ffffff">
            <path
               id="path3061"
               style="fill:#ffffff;fill-opacity:1;fill-rule:nonzero;stroke:none"
               d="m 0,0 0,17.157 0.348,0.037 c 1.32,0.102 2.16,0.299 3.31,0.508 L 3.658,0 0,0"
               inkscape:connector-curvature="0" />
          </g>
          <g
             transform="translate(157.2324,32.8877)"
             id="g3063"
             style="fill:#ffffff">
            <path
               id="path3065"
               style="fill:#ffffff;fill-opacity:1;fill-rule:nonzero;stroke:none"
               d="m 0,0 c -2.127,0 -3.346,-1.884 -3.486,-5.263 l 6.66,0 C 3.104,-1.849 1.988,0 0,0 m -3.486,-7.429 0,-0.453 c 0.14,-4.014 1.675,-5.792 4.955,-5.792 1.427,0 2.508,0.246 4.494,1.047 l 0.734,-1.986 c -2.371,-1.184 -3.974,-1.606 -6.281,-1.606 -5.195,0 -7.947,3.244 -7.947,9.349 0,5.58 2.789,8.857 7.531,8.857 4.709,0 7.152,-3.207 7.189,-9.416 l -10.675,0 z"
               inkscape:connector-curvature="0" />
          </g>
        </g>
      </g>
      <g
         transform="translate(9.2266,55.2222)"
         id="g3067"
         style="fill:#ffffff" />
      <g
         id="g3071"
         style="fill:#ffffff">
        <g
           clip-path="url(#clipPath3075)"
           id="g3073"
           style="fill:#ffffff">
          <g
             transform="translate(9.2266,56.731)"
             id="g3079"
             style="fill:#ffffff" />
          <g
             transform="translate(9.2266,17.0283)"
             id="g3083"
             style="fill:#ffffff" />
          <g
             transform="translate(18.5303,61.9019)"
             id="g3087"
             style="fill:#ffffff" />
          <g
             transform="translate(17.0215,61.9019)"
             id="g3091"
             style="fill:#ffffff" />
          <g
             transform="translate(164.4229,61.9019)"
             id="g3095"
             style="fill:#ffffff" />
        </g>
      </g>
      <g
         id="g3107"
         style="fill:#ffffff">
        <g
           clip-path="url(#clipPath3111)"
           id="g3109"
           style="fill:#ffffff">
          <g
             transform="translate(35.5068,6.4453)"
             id="g3125"
             style="fill:#ffffff" />
          <g
             transform="translate(33.998,6.4453)"
             id="g3129"
             style="fill:#ffffff" />
          <g
             transform="translate(51.0059,6.4453)"
             id="g3133"
             style="fill:#ffffff" />
        </g>
      </g>
    </g>
  </g>
</svg>
